<svg version="1.1" viewBox="0 0 185 185">
	<path d="M177.7,56.5c-4.7-11-11.3-20.9-19.8-29.4c-8.5-8.5-18.4-15.2-29.4-19.8C117.1,2.4,105,0,92.5,0C80,0,67.9,2.4,56.5,7.3c-11,4.7-20.9,11.3-29.4,19.8c-8.5,8.5-15.2,18.4-19.8,29.4C2.4,67.9,0,80,0,92.5c0,12.5,2.4,24.6,7.3,36c4.7,11,11.3,20.9,19.8,29.4c8.5,8.5,18.4,15.2,29.4,19.8c11.4,4.8,23.5,7.3,36,7.3c12.5,0,24.6-2.4,36-7.3c11-4.7,20.9-11.3,29.4-19.8c8.5-8.5,15.2-18.4,19.8-29.4c4.8-11.4,7.3-23.5,7.3-36C185,80,182.6,67.9,177.7,56.5z M55.7,166.3c-7.3-3.6-13.9-8.3-19.9-13.9l25.9-57.8l0,0c9.6-13.4,18.6-20.7,32.4-20.7c13.1,0,24.3,9,24.3,23.1c0,12.1-6.7,21.3-25.1,37.9L55.7,166.3z M95.1,61.6c-8.1,0-14.8,1.4-20.5,4l17.6-39.5L109,63.8C104.8,62.4,100.1,61.6,95.1,61.6z M10.1,92.5c0-11.1,2.2-21.9,6.5-32.1c4.1-9.8,10.1-18.6,17.7-26.2s16.4-13.5,26.2-17.7c7.2-3.1,14.8-5,22.6-5.9L24.7,139.4c-3.2-4.6-6-9.6-8.2-14.8C12.3,114.4,10.1,103.6,10.1,92.5z M124.6,168.4c-10.2,4.3-20.9,6.5-32.1,6.5c-7.9,0-15.6-1.1-23-3.3l32.5-28.7c14.7-12.8,23.7-21.9,27.8-32.2l18.7,42.2C141.5,159.5,133.4,164.7,124.6,168.4z M168.4,124.6c-2.2,5.2-5,10.2-8.2,14.8L102,10.7c7.8,0.9,15.3,2.9,22.6,5.9c9.8,4.1,18.6,10.1,26.2,17.7c7.6,7.6,13.5,16.4,17.7,26.2c4.3,10.2,6.5,20.9,6.5,32.1C174.9,103.6,172.7,114.4,168.4,124.6z"/>
</svg>
