<svg viewBox="0 0 185 185">
	<path fill="#ED2025" d="M57.2,84.2c1.3,2.5,2,5.2,2,8.1c0,1.5-0.2,2.9-0.5,4.4l-4,21.5c-0.6,2.8-2,5.2-4.3,7.1c-2.3,1.9-5,2.9-8,2.9H23.9c-2.7,0-5-1-6.9-3c-1.8-1.9-2.7-4.3-2.7-7.1v-1.8l4.9-28.3h12.9L27.9,112v0.4c0,0.9,0.3,1.7,0.9,2.3c0.6,0.7,1.4,1,2.3,1h7.1c1.1,0,2.2-0.4,3.1-1.1c0.9-0.8,1.5-1.7,1.8-2.8l2.8-15.7c0.1-0.5,0.2-1,0.2-1.5c0-2.1-0.9-4.8-2.7-8c-0.8-1.5-3.1-5.6-6.7-12.4c-4-7.6-6.4-12-7-13.2c-2-3.9-3-7.7-3-11.5c0-1.1,0.1-2.3,0.2-3.4l3.3-19.3c0.6-2.9,2-5.3,4.4-7.2c2.3-1.9,4.9-2.9,7.8-2.9h18.6c2.7,0,5,1,7,3c2,2,3,4.4,3,7.1c0,0.8-0.1,1.4-0.2,1.8l-4.9,27.4H53L57.2,33c0.1-0.2,0.2-0.3,0.2-0.5c0-0.9-0.3-1.7-1-2.3c-0.7-0.6-1.4-0.9-2.3-0.9h-7.1c-1.1,0-2.1,0.4-3,1.1c-0.9,0.7-1.4,1.5-1.6,2.6l-2.3,12.4c-0.2,0.9-0.2,1.9-0.2,2.9c0,3.7,1.2,7.5,3.6,11.3C51.8,74.3,56.4,82.4,57.2,84.2z"/>
	<path fill="#ED2025" d="M106.9,104.2c1.3,2.5,2,5.2,2,8.1c0,1.5-0.2,2.9-0.5,4.4l-4,21.5c-0.6,2.8-2,5.2-4.3,7.1c-2.3,1.9-5,2.9-8,2.9H73.7c-2.7,0-5-1-6.9-3c-1.8-1.9-2.7-4.3-2.7-7.1v-1.8l4.9-28.3h12.9L77.7,132v0.4c0,0.9,0.3,1.7,0.9,2.3c0.6,0.7,1.4,1,2.3,1H88c1.1,0,2.2-0.4,3.1-1.1c0.9-0.8,1.5-1.7,1.8-2.8l2.8-15.7c0.1-0.5,0.2-1,0.2-1.5c0-2.1-0.9-4.8-2.7-8c-0.8-1.5-3.1-5.6-6.7-12.4c-4-7.6-6.4-12-7-13.2c-2-3.9-3-7.7-3-11.5c0-1.1,0.1-2.3,0.2-3.4l3.3-19.3c0.6-2.9,2-5.3,4.4-7.2c2.3-1.9,4.9-2.9,7.8-2.9h18.6c2.7,0,5,1,7,3c2,2,3,4.4,3,7.1c0,0.8-0.1,1.4-0.2,1.8l-4.9,27.4h-13.1l4.1-23.1c0.1-0.2,0.2-0.3,0.2-0.5c0-0.9-0.3-1.7-1-2.3c-0.7-0.6-1.4-0.9-2.3-0.9h-7.1c-1.1,0-2.1,0.4-3,1.1C92.7,51.1,92.2,52,92,53l-2.3,12.4c-0.2,0.9-0.2,1.9-0.2,2.9c0,3.7,1.2,7.5,3.6,11.3C101.6,94.3,106.2,102.4,106.9,104.2z"/>
	<path fill="#ED2025" d="M154.6,158.2c-0.6,2.8-2,5.2-4.3,7.1c-2.3,1.9-5,2.9-7.9,2.9h-18.6c-2.7,0-5.1-1-7-3c-1.9-2-2.9-4.3-2.9-7.1v-1.9l16-89.3c0.6-2.9,2-5.3,4.3-7.2c2.3-1.9,4.9-2.9,7.8-2.9h18.9c2.7,0,5,1,6.9,3c2,2,3,4.4,3,7.1c0,0.8-0.1,1.4-0.2,1.8l-5,27.8h-12.9l4.2-23.5v-0.5c0-0.9-0.3-1.7-0.9-2.3c-0.6-0.6-1.4-0.9-2.3-0.9h-7.2c-1.1,0-2.1,0.4-3,1.1c-0.9,0.7-1.4,1.5-1.6,2.6l-14.2,79v0.4c0,0.9,0.3,1.7,0.9,2.3c0.6,0.7,1.4,1,2.3,1h7.1c2.5,0,4.1-1.3,4.7-3.9l6.4-34.1h-7.4l2.3-12.4h20.3L154.6,158.2z"/>
</svg>
